<svg width="80" height="50" viewBox="0 0 80 50" fill="none" xmlns="http://www.w3.org/2000/svg">
<path id="FREE HORSES" d="M0.230202 25V0.272727H16.6024V4.5831H5.45819V10.4751H15.5157V14.7855H5.45819V25H0.230202ZM20.1189 25V0.272727H29.8746C31.742 0.272727 33.3357 0.60677 34.6558 1.27486C35.9839 1.9349 36.9941 2.87263 37.6863 4.08807C38.3866 5.29545 38.7368 6.71614 38.7368 8.35014C38.7368 9.99219 38.3826 11.4048 37.6743 12.5881C36.9659 13.7633 35.9397 14.6648 34.5954 15.2926C33.2593 15.9205 31.6414 16.2344 29.7417 16.2344H23.2098V12.0327H28.8966C29.8947 12.0327 30.7238 11.8958 31.3838 11.6222C32.0438 11.3485 32.5348 10.938 32.8568 10.3906C33.1868 9.84328 33.3518 9.16311 33.3518 8.35014C33.3518 7.52912 33.1868 6.83688 32.8568 6.27344C32.5348 5.70999 32.0398 5.28338 31.3717 4.99361C30.7117 4.69579 29.8786 4.54688 28.8724 4.54688H25.3469V25H20.1189ZM33.4726 13.7472L39.6182 25H33.8469L27.8341 13.7472H33.4726ZM42.4314 25V0.272727H59.0933V4.5831H47.6594V10.4751H58.2361V14.7855H47.6594V20.6896H59.1416V25H42.4314ZM63.2497 25V0.272727H79.9117V4.5831H68.4777V10.4751H79.0544V14.7855H68.4777V20.6896H79.96V25H63.2497ZM2.18049 49V35.1818H5.10201V40.8832H11.0328V35.1818H13.9475V49H11.0328V43.2919H5.10201V49H2.18049ZM29.0544 42.0909C29.0544 43.5978 28.7688 44.8797 28.1975 45.9368C27.6308 46.9938 26.8571 47.8013 25.8765 48.359C24.9004 48.9123 23.8029 49.1889 22.5839 49.1889C21.3559 49.1889 20.2539 48.91 19.2778 48.3523C18.3017 47.7945 17.5303 46.9871 16.9635 45.93C16.3968 44.873 16.1134 43.5933 16.1134 42.0909C16.1134 40.584 16.3968 39.3021 16.9635 38.245C17.5303 37.188 18.3017 36.3828 19.2778 35.8295C20.2539 35.2718 21.3559 34.9929 22.5839 34.9929C23.8029 34.9929 24.9004 35.2718 25.8765 35.8295C26.8571 36.3828 27.6308 37.188 28.1975 38.245C28.7688 39.3021 29.0544 40.584 29.0544 42.0909ZM26.0924 42.0909C26.0924 41.1148 25.9462 40.2917 25.6539 39.6214C25.366 38.9512 24.9589 38.4429 24.4326 38.0966C23.9063 37.7502 23.2901 37.5771 22.5839 37.5771C21.8777 37.5771 21.2615 37.7502 20.7352 38.0966C20.2089 38.4429 19.7996 38.9512 19.5072 39.6214C19.2193 40.2917 19.0754 41.1148 19.0754 42.0909C19.0754 43.067 19.2193 43.8902 19.5072 44.5604C19.7996 45.2306 20.2089 45.7389 20.7352 46.0852C21.2615 46.4316 21.8777 46.6048 22.5839 46.6048C23.2901 46.6048 23.9063 46.4316 24.4326 46.0852C24.9589 45.7389 25.366 45.2306 25.6539 44.5604C25.9462 43.8902 26.0924 43.067 26.0924 42.0909ZM31.2186 49V35.1818H36.6703C37.7138 35.1818 38.6045 35.3685 39.3422 35.7418C40.0843 36.1107 40.6489 36.6347 41.0357 37.3139C41.427 37.9886 41.6227 38.7826 41.6227 39.6957C41.6227 40.6133 41.4248 41.4027 41.0289 42.0639C40.6331 42.7206 40.0596 43.2244 39.3084 43.5753C38.5617 43.9261 37.6576 44.1016 36.5961 44.1016H32.9458V41.7536H36.1238C36.6815 41.7536 37.1448 41.6771 37.5137 41.5241C37.8825 41.3712 38.1569 41.1418 38.3368 40.8359C38.5212 40.5301 38.6135 40.15 38.6135 39.6957C38.6135 39.2369 38.5212 38.85 38.3368 38.5352C38.1569 38.2203 37.8803 37.9819 37.5069 37.82C37.1381 37.6535 36.6725 37.5703 36.1103 37.5703H34.1401V49H31.2186ZM38.6809 42.7116L42.1152 49H38.8901L35.53 42.7116H38.6809ZM51.1834 39.1559C51.1294 38.6116 50.8978 38.1888 50.4885 37.8874C50.0791 37.5861 49.5236 37.4354 48.8219 37.4354C48.3451 37.4354 47.9425 37.5028 47.6142 37.6378C47.2858 37.7682 47.0339 37.9504 46.8585 38.1843C46.6876 38.4182 46.6021 38.6836 46.6021 38.9805C46.5931 39.2279 46.6448 39.4438 46.7573 39.6282C46.8742 39.8126 47.0339 39.9723 47.2363 40.1072C47.4387 40.2377 47.6726 40.3524 47.938 40.4513C48.2034 40.5458 48.4868 40.6268 48.7882 40.6942L50.0297 40.9911C50.6324 41.1261 51.1857 41.306 51.6895 41.5309C52.1932 41.7558 52.6296 42.0324 52.9984 42.3608C53.3672 42.6892 53.6529 43.076 53.8553 43.5213C54.0622 43.9666 54.1679 44.4772 54.1724 45.0529C54.1679 45.8986 53.952 46.6317 53.5247 47.2525C53.1019 47.8687 52.4901 48.3478 51.6895 48.6896C50.8933 49.027 49.9329 49.1957 48.8084 49.1957C47.6929 49.1957 46.7213 49.0247 45.8936 48.6829C45.0705 48.341 44.4273 47.835 43.964 47.1648C43.5051 46.4901 43.2645 45.6557 43.242 44.6616H46.0691C46.1006 45.1249 46.2333 45.5117 46.4672 45.8221C46.7056 46.128 47.0227 46.3596 47.4185 46.517C47.8188 46.67 48.2709 46.7464 48.7747 46.7464C49.2695 46.7464 49.699 46.6745 50.0634 46.5305C50.4322 46.3866 50.7179 46.1864 50.9203 45.93C51.1227 45.6737 51.2239 45.379 51.2239 45.0462C51.2239 44.7358 51.1317 44.4749 50.9473 44.2635C50.7673 44.0521 50.502 43.8722 50.1511 43.7237C49.8047 43.5753 49.3797 43.4403 48.8759 43.3189L47.3713 42.9411C46.2063 42.6577 45.2864 42.2146 44.6117 41.6119C43.937 41.0091 43.6019 40.1972 43.6064 39.1761C43.6019 38.3395 43.8245 37.6085 44.2743 36.9833C44.7286 36.3581 45.3516 35.87 46.1433 35.5192C46.935 35.1683 47.8346 34.9929 48.8422 34.9929C49.8677 34.9929 50.7628 35.1683 51.5275 35.5192C52.2967 35.87 52.8949 36.3581 53.3223 36.9833C53.7496 37.6085 53.97 38.3327 53.9835 39.1559H51.1834ZM56.1375 49V35.1818H65.4486V37.5906H59.059V40.8832H64.9695V43.2919H59.059V46.5913H65.4756V49H56.1375ZM75.2674 39.1559C75.2134 38.6116 74.9818 38.1888 74.5724 37.8874C74.1631 37.5861 73.6076 37.4354 72.9059 37.4354C72.4291 37.4354 72.0265 37.5028 71.6982 37.6378C71.3698 37.7682 71.1179 37.9504 70.9425 38.1843C70.7715 38.4182 70.6861 38.6836 70.6861 38.9805C70.6771 39.2279 70.7288 39.4438 70.8413 39.6282C70.9582 39.8126 71.1179 39.9723 71.3203 40.1072C71.5227 40.2377 71.7566 40.3524 72.022 40.4513C72.2874 40.5458 72.5708 40.6268 72.8722 40.6942L74.1136 40.9911C74.7164 41.1261 75.2696 41.306 75.7734 41.5309C76.2772 41.7558 76.7135 42.0324 77.0824 42.3608C77.4512 42.6892 77.7369 43.076 77.9393 43.5213C78.1462 43.9666 78.2519 44.4772 78.2564 45.0529C78.2519 45.8986 78.036 46.6317 77.6087 47.2525C77.1858 47.8687 76.5741 48.3478 75.7734 48.6896C74.9773 49.027 74.0169 49.1957 72.8924 49.1957C71.7769 49.1957 70.8053 49.0247 69.9776 48.6829C69.1545 48.341 68.5112 47.835 68.0479 47.1648C67.5891 46.4901 67.3485 45.6557 67.326 44.6616H70.1531C70.1845 45.1249 70.3172 45.5117 70.5511 45.8221C70.7895 46.128 71.1067 46.3596 71.5025 46.517C71.9028 46.67 72.3549 46.7464 72.8587 46.7464C73.3535 46.7464 73.783 46.6745 74.1474 46.5305C74.5162 46.3866 74.8018 46.1864 75.0043 45.93C75.2067 45.6737 75.3079 45.379 75.3079 45.0462C75.3079 44.7358 75.2157 44.4749 75.0312 44.2635C74.8513 44.0521 74.5859 43.8722 74.2351 43.7237C73.8887 43.5753 73.4637 43.4403 72.9599 43.3189L71.4553 42.9411C70.2902 42.6577 69.3704 42.2146 68.6957 41.6119C68.021 41.0091 67.6858 40.1972 67.6903 39.1761C67.6858 38.3395 67.9085 37.6085 68.3583 36.9833C68.8126 36.3581 69.4356 35.87 70.2273 35.5192C71.0189 35.1683 71.9186 34.9929 72.9261 34.9929C73.9517 34.9929 74.8468 35.1683 75.6115 35.5192C76.3807 35.87 76.9789 36.3581 77.4062 36.9833C77.8336 37.6085 78.054 38.3327 78.0675 39.1559H75.2674Z" fill="white"/>
</svg>
